<svg id="Capa_1" data-name="Capa 1" xmlns="http://www.w3.org/2000/svg" viewBox="0 0 30 30"><defs><style>.cls-1{fill:#fff;}</style></defs><path class="cls-1" d="M26.13,5.51H3.87A2.37,2.37,0,0,0,1.5,7.88V22.12a2.37,2.37,0,0,0,2.37,2.37H26.13a2.37,2.37,0,0,0,2.37-2.37V7.88a2.37,2.37,0,0,0-2.37-2.37Zm-.34,1.58-9.11,9.07a2.35,2.35,0,0,1-.77.51,2.39,2.39,0,0,1-1.82,0,2.35,2.35,0,0,1-.77-.51L4.21,7.09ZM3.08,21.8V8.2L9.92,15Zm1.13,1.11L11,16.12l1.17,1.15a3.85,3.85,0,0,0,1.28.86,4,4,0,0,0,1.52.3,3.91,3.91,0,0,0,1.51-.3,3.85,3.85,0,0,0,1.28-.86L19,16.11l6.82,6.8ZM26.92,21.8,20.08,15l6.84-6.8Z"/></svg>