<svg id="Capa_1" data-name="Capa 1" xmlns="http://www.w3.org/2000/svg" viewBox="0 0 30 30"><defs><style>.cls-1{fill:#fff;}</style></defs><path class="cls-1" d="M15,.59A10.13,10.13,0,0,0,6.38,16.05l8,13a.89.89,0,0,0,.31.3.83.83,0,0,0,.41.1h0a.87.87,0,0,0,.41-.11.72.72,0,0,0,.3-.3l7.85-13.09A10.13,10.13,0,0,0,15,.59Zm7.25,14.46L15.13,27,7.81,15.16A8.45,8.45,0,0,1,19.21,3.39a8.34,8.34,0,0,1,3.12,3.12,8.44,8.44,0,0,1-.08,8.54Z"/><path class="cls-1" d="M15,5.65a5.07,5.07,0,0,0-4.68,3.13A5,5,0,0,0,10,11.71a5.09,5.09,0,0,0,4,4,5.07,5.07,0,0,0,5.2-2.15A5.07,5.07,0,0,0,15,5.65Zm0,8.46a3.38,3.38,0,0,1-3.33-4,3.34,3.34,0,0,1,.93-1.73,3.3,3.3,0,0,1,1.73-.93,3.38,3.38,0,0,1,3.48,1.44A3.39,3.39,0,0,1,15,14.11Z"/></svg>