<svg id="Capa_1" data-name="Capa 1" xmlns="http://www.w3.org/2000/svg" viewBox="0 0 30 30"><defs><style>.cls-1{fill:#fff;stroke:#fff;stroke-width:0.5px;}</style></defs><path class="cls-1" d="M27.79,22.33l-5.46-3.65a1.61,1.61,0,0,0-2.14.35l-1.59,2a.66.66,0,0,1-.4.25.64.64,0,0,1-.47-.07l-.3-.17a18.24,18.24,0,0,1-4.77-3.74,18.24,18.24,0,0,1-3.74-4.77l-.17-.3a.7.7,0,0,1-.08-.47.72.72,0,0,1,.26-.4l2-1.59a1.61,1.61,0,0,0,.35-2.14L7.67,2.21a1.58,1.58,0,0,0-2.14-.48L3.25,3.1A3.2,3.2,0,0,0,1.78,5C1,8,1.57,13.18,9.19,20.81c6.07,6.06,10.58,7.69,13.68,7.69A8,8,0,0,0,25,28.22a3.2,3.2,0,0,0,1.91-1.47l1.37-2.28a1.6,1.6,0,0,0,.19-1.17A1.56,1.56,0,0,0,27.79,22.33ZM27.5,24l-1.38,2.28a2.33,2.33,0,0,1-1.37,1.07c-2.77.76-7.6.13-14.92-7.19S1.88,8,2.65,5.25A2.3,2.3,0,0,1,3.71,3.87L6,2.5a.71.71,0,0,1,.51-.08.69.69,0,0,1,.42.29l2,3,1.66,2.49a.68.68,0,0,1-.15.93l-2,1.59a1.6,1.6,0,0,0-.59.93A1.65,1.65,0,0,0,8,12.71l.16.3A19.45,19.45,0,0,0,12,18a19.23,19.23,0,0,0,5,3.9l.29.16a1.55,1.55,0,0,0,1.09.17,1.62,1.62,0,0,0,.94-.59l1.58-2a.72.72,0,0,1,.44-.26.66.66,0,0,1,.49.11l5.47,3.64a.73.73,0,0,1,.29.42.7.7,0,0,1-.08.51Z"/><path class="cls-1" d="M16.8,6a7.66,7.66,0,0,1,7.65,7.65.46.46,0,0,0,.13.32.46.46,0,0,0,.64,0,.46.46,0,0,0,.13-.32A8.57,8.57,0,0,0,16.8,5.1a.44.44,0,0,0-.45.45.46.46,0,0,0,.13.32A.48.48,0,0,0,16.8,6Z"/><path class="cls-1" d="M16.8,8.7a5,5,0,0,1,4.95,5,.47.47,0,0,0,0,.17.56.56,0,0,0,.1.15.4.4,0,0,0,.15.1.5.5,0,0,0,.34,0,.4.4,0,0,0,.15-.1.38.38,0,0,0,.09-.15.33.33,0,0,0,0-.17A5.87,5.87,0,0,0,16.8,7.8a.44.44,0,0,0-.45.45.46.46,0,0,0,.13.32A.48.48,0,0,0,16.8,8.7Z"/><path class="cls-1" d="M16.8,11.4a2.25,2.25,0,0,1,2.25,2.25.45.45,0,1,0,.9,0A3.14,3.14,0,0,0,16.8,10.5a.44.44,0,0,0-.45.45.46.46,0,0,0,.13.32A.48.48,0,0,0,16.8,11.4Z"/></svg>