<svg id="Capa_1" data-name="Capa 1" xmlns="http://www.w3.org/2000/svg" viewBox="0 0 30 30"><defs><style>.cls-1{fill:#fff;}</style></defs><path class="cls-1" d="M19.74,17.35,16,14.57V8.9a1,1,0,0,0-.3-.73,1,1,0,0,0-1.46,0,1,1,0,0,0-.3.73v6.19a1.07,1.07,0,0,0,.11.46,1,1,0,0,0,.3.36L18.5,19a1.06,1.06,0,0,0,.37.18,1.06,1.06,0,0,0,.78-.11,1,1,0,0,0,.47-.64.9.9,0,0,0,0-.4,1.07,1.07,0,0,0-.13-.38,1.27,1.27,0,0,0-.27-.3Z"/><path class="cls-1" d="M15,1.69a13.32,13.32,0,1,0,9.41,3.9A13.35,13.35,0,0,0,15,1.69Zm0,24.56A11.27,11.27,0,1,1,23,23,11.23,11.23,0,0,1,15,26.25Z"/></svg>