<?xml version="1.0" encoding="utf-8"?>
<!-- Generator: Adobe Illustrator 26.0.1, SVG Export Plug-In . SVG Version: 6.00 Build 0)  -->
<svg version="1.1" id="Capa_1" xmlns="http://www.w3.org/2000/svg" xmlns:xlink="http://www.w3.org/1999/xlink" x="0px" y="0px"
	 viewBox="0 0 1418.9 477.2" style="enable-background:new 0 0 1418.9 477.2;" xml:space="preserve">
<style type="text/css">
	.st0{fill:#FFFFFF;}
	.st1{fill-rule:evenodd;clip-rule:evenodd;fill:#FFFFFF;}
</style>
<path class="st0" d="M258.8,230.4l34.1,19.7L412.6,319V142.2l-119.6,68.5L258.8,230.4z"/>
<path class="st0" d="M462.1,160c0-12,5.5-17.2,17.5-17.2h44.3c29,0,39,20.3,39,44.4s-6.3,33.3-20.3,39.1
	c17.1,6.1,20.3,16.6,20.3,36.9v18.5c0,9.5,2.2,18.2,2.2,27c0,5.1-4.7,10.3-15.4,10.3s-19.3-5.1-20.3-16.4l-1.6-44.2
	c0.7-7.8-4-15-11.5-17.4c-2.4-0.8-4.9-1-7.4-0.6h-14v62c0.5,4.6-0.9,9.2-4,12.6c-6,6.7-16.2,7.3-22.9,1.3c-3.9-3.5-5.9-8.7-5.3-13.9
	L462.1,160z M494.4,216H507c12.8,0,22.1-5.7,22.1-24.5s-5.3-24.5-20.3-24.5h-14L494.4,216z"/>
<path class="st0" d="M582.8,237.3c0-33.3,4.9-54.8,44.9-54.8c30.5,0,40.6,17.2,40.6,51.3c0,11.8-1.4,20.3-16.2,20.3h-38.6v13
	c0,15.6,1.2,28,13.2,28c6.7-0.8,11.6-6.7,11.4-13.4c0-12.8,6.3-15.8,14.4-15.8s15,3,15,14.6c0.9,20.1-14.6,37-34.7,37.9
	c-2,0.1-3.9,0-5.9-0.2c-40.6,0-44.9-21.5-44.9-54.8L582.8,237.3z M639.2,234v-10.7c0-9.9-3.2-17.6-12.8-17.6s-12.8,7.7-12.8,17.6
	V234H639.2z"/>
<path class="st0" d="M686.3,233.4c0-26.8,4.9-50.9,31.3-50.9c10.8-0.2,20.9,5.7,26,15.2v-40.6c0-12.2,5.7-17.6,14.6-17.6
	s14.6,5.5,14.6,17.6v144.2c0,12-5.7,17.6-14.6,17.6c-7.9,0.1-14.5-6.2-14.6-14.1c0-0.4,0-0.7,0-1.1c-4.9,9.8-15.1,15.7-26,15.2
	c-26.4,0-31.3-24.1-31.3-50.9V233.4z M717.2,260.6c0,21.5,1.4,34.1,12.2,34.1s14.8-13.2,14.8-31.8v-24.5c0-26.2-7.5-31.4-14.4-31.4
	c-10,0-12.6,7.9-12.6,36.5V260.6z"/>
<path class="st0" d="M797.4,217.2c0-60.8,16.9-78.5,55.7-78.5c23.7-2.9,45.3,13.9,48.2,37.5c0.2,1.9,0.3,3.8,0.3,5.6
	c0,11.4-4.1,20.3-16.2,20.3s-15.4-5.1-17.5-20.3s-6.5-17.6-14.8-17.6c-14.8,0-21.9,6.5-21.9,58.2v9.7c0,40.6,1,62.4,20.3,62.4
	c9.1-0.8,16-8.5,16-17.6c0-20.3,3.9-26.4,17.5-26.4s16.2,7.3,16.2,18.9c2.6,25.2-15.7,47.8-40.9,50.4c-3.3,0.3-6.7,0.3-10.1-0.1
	c-50.6,0-52-41.6-52-75.2L797.4,217.2z"/>
<path class="st0" d="M1003.4,287.4c0,8.3,1.6,15.4,1.6,20.3c0,7.7-5.3,11.6-14.8,11.6s-15.2-3.8-15.2-16.6
	c-4.7,10.4-15.2,16.9-26.7,16.4c-17.5,0-30.5-10.3-30.5-34.9c-2.3-16.1,5.9-31.9,20.3-39.3l26.2-13.6c5.6-2.3,9.3-7.7,9.3-13.8
	c0.4-3.3-0.6-6.5-2.8-9c-2.2-2.5-5.3-3.9-8.6-3.9c-10.2,0-13.2,5.1-14.4,15.4c0,5.9-6.3,9.3-14,9.3s-15.4-3.1-15.4-12
	c0-22.5,18.5-34.7,40.6-34.7c39.2,0,43.7,17.4,43.7,38.5L1003.4,287.4z M973.9,247.8l-10.4,7.3c-13,9.1-15.4,13.6-15.4,24.7
	s4.1,15.4,10.4,15.4c9.7,0,15.4-10.5,15.4-24.3V247.8z"/>
<path class="st0" d="M1029.4,200.2c0-12,5.7-17.6,14.6-17.6s14.6,5.7,14.6,17.6c4.5-10.5,14.6-17.4,26-17.6
	c26.4,0,31.3,24.1,31.3,50.9v34.7c0,26.8-4.9,50.9-31.3,50.9c-10.8,0.5-20.9-5.3-26-14.8v44c0,12-5.7,17.6-14.6,17.6
	s-14.6-5.7-14.6-17.6V200.2z M1058.6,264c0,18.6,3.2,31.8,14.8,31.8s12.2-12.6,12.2-34.3v-18.2c0-28.6-2.7-36.5-12.4-36.5
	s-14.6,5.3-14.6,31.4L1058.6,264z"/>
<path class="st0" d="M1154.9,138.8c9.2,0.1,16.6,7.7,16.4,16.9c-0.1,9.2-7.7,16.6-16.9,16.4c-9.2-0.1-16.6-7.7-16.4-16.9
	c0.1-6.7,4.2-12.7,10.4-15.2C1150.5,139.1,1152.7,138.7,1154.9,138.8z M1140.3,199.6c0-12,5.7-17.6,14.6-17.6s14.6,5.7,14.6,17.6
	V301c0,12-5.7,17.6-14.6,17.6s-14.6-5.7-14.6-17.6V199.6z"/>
<path class="st0" d="M1200.6,207.7h-3c-8.7,0-13-2.8-13-11s4.3-10.9,13-10.9h3v-22.3c0-12.2,5.7-17.6,14.6-17.6s14.8,5.5,14.8,17.6
	V186h6.1c8.5,0,13,2.8,13,10.9s-4.5,10.9-13,10.9h-6.7v76.4c0,5.5,1.2,8.7,7.9,9.1s10.8,2.6,10.8,10.3s-6.1,13.6-18.5,13.6
	c-22.8,0-29.7-11.8-29.7-23.9L1200.6,207.7z"/>
<path class="st0" d="M1342,287.4c0,8.3,1.6,15.4,1.6,20.3c0,7.7-5.3,11.6-14.6,11.6s-15.4-3.9-15.4-16.6
	c-4.8,10.4-15.4,16.9-26.9,16.4c-17.3,0-30.3-10.3-30.3-34.9c-2.3-16.1,5.9-31.9,20.3-39.3l26.2-13.6c5.6-2.3,9.3-7.7,9.3-13.8
	c0.2-1.6,0.1-3.2-0.4-4.8c-1.5-4.8-5.8-8.1-10.8-8.2c-10.2,0-13.4,5.1-14.6,15.4c0,5.9-6.1,9.3-13.8,9.3s-15.4-3.1-15.4-12
	c0.7-19.9,17.4-35.6,37.3-34.9c1.1,0,2.2,0.1,3.3,0.3c39.4,0,43.7,17.4,43.7,38.5L1342,287.4z M1312.6,247.8l-10.4,7.3
	c-13,9.1-15.4,13.6-15.4,24.7s4.3,15.4,10.6,15.4c9.6,0,15.2-10.5,15.2-24.3L1312.6,247.8z"/>
<path class="st0" d="M1367.9,157.2c0-12.2,5.9-17.6,14.6-17.6s14.8,5.5,14.8,17.6v144.2c0,12-5.9,17.6-14.8,17.6
	s-14.6-5.7-14.6-17.6V157.2z"/>
<path class="st1" d="M270.6,295.1l-56.7,32.6l0,0l-2.7,1.5l-0.1-0.1L126,280.1v-98.1l84.4-49l58.7,34l115.9-66.8L280.7,39l-40-22.5
	c-9.1-4.9-19.2-7.5-29.5-7.5c-9.9,0-19.7,2.5-28.4,7.1l-4.9,2.9L43.7,96.5l-5.1,2.8c-8.2,5.2-15.1,12.1-20.3,20.3h0
	c-4.5,7.9-7.2,16.7-8,25.7v166.7c0.1,20.5,10.4,39.5,27.6,50.7l6.3,3.6l134.5,77.7l4.1,2.2c6,3.1,12.4,5.1,19,6.1
	c0.6,0.1,1.2,0.2,1.8,0.3l0.8,0.1c2.2,0.3,4.3,0.4,6.5,0.4h0.7l0,0c4.5-0.1,8.9-0.6,13.2-1.8c5.2-1.1,10.3-2.9,15-5.3l5.7-3.2
	l141.2-81.1L270.6,295.1z"/>
</svg>
