<svg id="Capa_1" data-name="Capa 1" xmlns="http://www.w3.org/2000/svg" viewBox="0 0 35 35"><defs><style>.cls-1{fill:#fff;}</style></defs><path class="cls-1" d="M34.34,7.05a14.36,14.36,0,0,1-4,1.09,6.9,6.9,0,0,0,3-3.81A13.72,13.72,0,0,1,29,6,6.9,6.9,0,0,0,17.1,10.71a7.47,7.47,0,0,0,.16,1.57,19.48,19.48,0,0,1-7.87-2.09A19.55,19.55,0,0,1,3.05,5.07a6.9,6.9,0,0,0,2.12,9.22,6.84,6.84,0,0,1-3.12-.85v.07a7,7,0,0,0,1.56,4.37,6.91,6.91,0,0,0,4,2.41,7.36,7.36,0,0,1-1.81.23,7.17,7.17,0,0,1-1.31-.12,7,7,0,0,0,6.45,4.8,13.83,13.83,0,0,1-8.56,2.94,15.16,15.16,0,0,1-1.64-.09,19.44,19.44,0,0,0,10.58,3.09c12.69,0,19.62-10.51,19.62-19.62,0-.31,0-.6,0-.89A13.82,13.82,0,0,0,34.34,7.05Z"/></svg>