<svg id="Capa_1" data-name="Capa 1" xmlns="http://www.w3.org/2000/svg" viewBox="0 0 35 35"><defs><style>.cls-1{fill:#fff;}</style></defs><path class="cls-1" d="M32.85,32.84h0V21.59c0-5.5-1.18-9.75-7.62-9.75a6.66,6.66,0,0,0-6,3.31h-.09V12.36H13V32.84h6.35V22.7c0-2.67.51-5.26,3.81-5.26s3.31,3,3.31,5.43v10Z"/><path class="cls-1" d="M2.69,12.36H9.05V32.84H2.69Z"/><path class="cls-1" d="M5.86,2.16a3.69,3.69,0,0,0-2.06.62A3.7,3.7,0,0,0,5.13,9.49a3.69,3.69,0,0,0,3.8-1.58,3.77,3.77,0,0,0,.62-2.06A3.69,3.69,0,0,0,5.86,2.16Z"/></svg>