<svg id="Capa_1" data-name="Capa 1" xmlns="http://www.w3.org/2000/svg" viewBox="0 0 35 35"><defs><style>.cls-1{fill:#fff;}</style></defs><path class="cls-1" d="M32.9,11.12a11.2,11.2,0,0,0-.72-3.76,8,8,0,0,0-4.53-4.53,11.19,11.19,0,0,0-3.76-.71C22.24,2,21.71,2,17.51,2s-4.74,0-6.39.09a11.19,11.19,0,0,0-3.75.72A7.61,7.61,0,0,0,4.62,4.62,7.68,7.68,0,0,0,2.84,7.36a11.2,11.2,0,0,0-.72,3.76C2,12.78,2,13.3,2,17.51s0,4.73.09,6.38a11.19,11.19,0,0,0,.72,3.75,7.9,7.9,0,0,0,4.53,4.53,11.2,11.2,0,0,0,3.76.72c1.65.07,2.18.09,6.38.09s4.73,0,6.38-.09a11.2,11.2,0,0,0,3.76-.72,7.91,7.91,0,0,0,2.74-1.78,8.07,8.07,0,0,0,1.79-2.75,11.2,11.2,0,0,0,.72-3.76c.07-1.65.09-2.17.09-6.38S33,12.77,32.9,11.12ZM30.11,23.76a8.59,8.59,0,0,1-.53,2.88,5.15,5.15,0,0,1-2.94,2.94,8.53,8.53,0,0,1-2.87.53c-1.64.07-2.13.09-6.26.09s-4.62,0-6.25-.09a8.59,8.59,0,0,1-2.88-.53,4.78,4.78,0,0,1-1.77-1.16,4.78,4.78,0,0,1-1.16-1.78,8.53,8.53,0,0,1-.53-2.87c-.07-1.64-.09-2.13-.09-6.26s0-4.63.09-6.25a8.53,8.53,0,0,1,.53-2.87A4.7,4.7,0,0,1,6.61,6.61,4.9,4.9,0,0,1,8.39,5.45a8.53,8.53,0,0,1,2.87-.53c1.64-.08,2.13-.09,6.26-.09s4.63,0,6.25.09a8.59,8.59,0,0,1,2.88.53A4.76,4.76,0,0,1,28.42,6.6a4.81,4.81,0,0,1,1.16,1.79,8.53,8.53,0,0,1,.53,2.87c.07,1.63.09,2.12.09,6.26S30.18,22.13,30.11,23.76Z"/><path class="cls-1" d="M17.5,9.55a8,8,0,0,0-5.62,13.58A8,8,0,1,0,23.13,11.88,8,8,0,0,0,17.5,9.55Zm0,13.11a5.1,5.1,0,0,1-2.86-.87,5.15,5.15,0,0,1,1.86-9.35,5.17,5.17,0,0,1,6.16,5.06,5.16,5.16,0,0,1-5.16,5.16Z"/><path class="cls-1" d="M27.63,9.23a1.92,1.92,0,0,1-.31,1,2,2,0,0,1-.83.68,1.85,1.85,0,0,1-2-.4,1.85,1.85,0,0,1-.51-1,1.9,1.9,0,0,1,.11-1.08,1.85,1.85,0,0,1,.68-.83,1.91,1.91,0,0,1,1-.31,1.84,1.84,0,0,1,1.86,1.85Z"/></svg>